<svg width="40" height="40" viewBox="0 0 40 40" fill="none" xmlns="http://www.w3.org/2000/svg">
<g clip-path="url(#clip0_4974_29155)">
<path d="M24.3488 19.0232L10.907 16.6511V34.1785C10.907 34.979 11.5559 35.6279 12.3563 35.6279H35.5507C36.3511 35.6279 37 34.979 37 34.1785V27.7209L24.3488 19.0232Z" fill="#185C37"/>
<path d="M24.3488 4H12.3563C11.5559 4 10.907 4.64889 10.907 5.44935V11.907L24.3488 19.814L31.4651 22.186L37 19.814V11.907L24.3488 4Z" fill="#21A366"/>
<path d="M10.907 11.907H24.3488V19.814H10.907V11.907Z" fill="#107C41"/>
<path opacity="0.1" d="M20.5273 10.3257H10.907V30.0931H20.5273C21.3266 30.0905 21.974 29.4431 21.9766 28.6438V11.775C21.974 10.9757 21.3266 10.3283 20.5273 10.3257Z" fill="#80B485"/>
<path opacity="0.2" d="M19.7367 11.1162H10.907V30.8837H19.7367C20.5361 30.8811 21.1835 30.2337 21.1861 29.4343V12.5656C21.1835 11.7662 20.5361 11.1188 19.7367 11.1162Z" fill="#80B485"/>
<path opacity="0.2" d="M19.7367 11.1162H10.907V29.3023H19.7367C20.5361 29.2997 21.1835 28.6523 21.1861 27.8529V12.5656C21.1835 11.7662 20.5361 11.1188 19.7367 11.1162Z" fill="#80B485"/>
<path opacity="0.2" d="M18.946 11.1162H10.907V29.3023H18.946C19.7454 29.2997 20.3928 28.6523 20.3954 27.8529V12.5656C20.3928 11.7662 19.7454 11.1188 18.946 11.1162Z" fill="#80B485"/>
<path d="M4.44935 11.1162H18.946C19.7464 11.1162 20.3953 11.7651 20.3953 12.5656V27.0622C20.3953 27.8627 19.7464 28.5115 18.946 28.5115H4.44935C3.64889 28.5116 3 27.8627 3 27.0622V12.5656C3 11.7651 3.64889 11.1162 4.44935 11.1162Z" fill="url(#paint0_linear_4974_29155)"/>
<path d="M7.48904 24.5248L10.538 19.8004L7.74444 15.1021H9.9916L11.5161 18.1067C11.6568 18.3921 11.7533 18.604 11.8055 18.744H11.8252C11.9254 18.5163 12.0308 18.2951 12.1415 18.0806L13.7711 15.1036H15.8341L12.9694 19.7743L15.9068 24.5248H13.7118L11.951 21.2268C11.868 21.0865 11.7976 20.9391 11.7406 20.7864H11.7145C11.663 20.936 11.5945 21.0792 11.5105 21.2134L9.69747 24.5248H7.48904Z" fill="white"/>
<path d="M35.5506 4H24.3488V11.907H36.9999V5.44935C36.9999 4.64889 36.351 4 35.5506 4Z" fill="#33C481"/>
<path d="M24.3488 19.814H36.9999V27.7209H24.3488V19.814Z" fill="#107C41"/>
</g>
<defs>
<linearGradient id="paint0_linear_4974_29155" x1="6.02192" y1="9.98372" x2="17.3734" y2="29.6441" gradientUnits="userSpaceOnUse">
<stop stop-color="#18884F"/>
<stop offset="0.5" stop-color="#117E43"/>
<stop offset="1" stop-color="#0B6631"/>
</linearGradient>
<clipPath id="clip0_4974_29155">
<rect width="34" height="31.6279" fill="white" transform="translate(3 4)"/>
</clipPath>
</defs>
</svg>
