<svg width="104" height="104" viewBox="0 0 104 104" fill="none" xmlns="http://www.w3.org/2000/svg">
<g clip-path="url(#clip0_4968_29019)">
<path d="M63.307 49.4604L28.3581 43.293V88.8642C28.3581 90.9454 30.0452 92.6325 32.1264 92.6325H92.4317C94.5129 92.6325 96.2 90.9454 96.2 88.8642V72.0744L63.307 49.4604Z" fill="#185C37"/>
<path d="M63.307 10.3999H32.1264C30.0452 10.3999 28.3581 12.087 28.3581 14.1682V30.958L63.307 51.5162L81.8093 57.6836L96.2 51.5162V30.958L63.307 10.3999Z" fill="#21A366"/>
<path d="M28.3581 30.958H63.307V51.5161H28.3581V30.958Z" fill="#107C41"/>
<path opacity="0.1" d="M53.3709 26.8464H28.3581V78.2418H53.3709C55.4492 78.235 57.1323 76.5518 57.1391 74.4735V30.6147C57.1323 28.5364 55.4492 26.8532 53.3709 26.8464Z" fill="#80B485"/>
<path opacity="0.2" d="M51.3154 28.9021H28.3581V80.2975H51.3154C53.3938 80.2907 55.0769 78.6075 55.0837 76.5292V32.6704C55.0769 30.592 53.3938 28.9089 51.3154 28.9021Z" fill="#80B485"/>
<path opacity="0.2" d="M51.3154 28.9021H28.3581V76.1858H51.3154C53.3938 76.1791 55.0769 74.4959 55.0837 72.4175V32.6704C55.0769 30.592 53.3938 28.9089 51.3154 28.9021Z" fill="#80B485"/>
<path opacity="0.2" d="M49.2596 28.9021H28.3581V76.1858H49.2596C51.3379 76.1791 53.0211 74.4959 53.0279 72.4175V32.6704C53.0211 30.592 51.3379 28.9089 49.2596 28.9021Z" fill="#80B485"/>
<path d="M11.5683 28.9021H49.2596C51.3407 28.9021 53.0279 30.5892 53.0279 32.6704V70.3617C53.0279 72.4429 51.3407 74.13 49.2596 74.13H11.5683C9.48711 74.13 7.79999 72.4429 7.79999 70.3617V32.6704C7.79999 30.5892 9.48711 28.9021 11.5683 28.9021Z" fill="url(#paint0_linear_4968_29019)"/>
<path d="M19.4715 63.7643L27.3987 51.4808L20.1356 39.2651H25.9782L29.9418 47.0772C30.3077 47.8194 30.5585 48.3703 30.6942 48.7342H30.7456C31.006 48.1421 31.2801 47.5672 31.5679 47.0094L35.8049 39.2693H41.1685L33.7203 51.413L41.3577 63.7642H35.6508L31.0725 55.1895C30.8568 54.8246 30.6738 54.4414 30.5257 54.0444H30.4578C30.3237 54.4334 30.1458 54.8058 29.9274 55.1545L25.2134 63.7643H19.4715Z" fill="white"/>
<path d="M92.4315 10.3999H63.3068V30.958H96.1998V14.1682C96.1998 12.087 94.5127 10.3999 92.4315 10.3999Z" fill="#33C481"/>
<path d="M63.3068 51.5161H96.1998V72.0743H63.3068V51.5161Z" fill="#107C41"/>
</g>
<defs>
<linearGradient id="paint0_linear_4968_29019" x1="15.657" y1="25.9576" x2="45.1709" y2="77.0745" gradientUnits="userSpaceOnUse">
<stop stop-color="#18884F"/>
<stop offset="0.5" stop-color="#117E43"/>
<stop offset="1" stop-color="#0B6631"/>
</linearGradient>
<clipPath id="clip0_4968_29019">
<rect width="88.4" height="82.2326" fill="white" transform="translate(7.79999 10.3999)"/>
</clipPath>
</defs>
</svg>
