<svg width="104" height="104" viewBox="0 0 104 104" fill="none" xmlns="http://www.w3.org/2000/svg">
<path d="M12 18C12 14.6863 14.6863 12 18 12H52H65.9853C67.5766 12 69.1027 12.6321 70.2279 13.7574L90.2426 33.7721C91.3679 34.8973 92 36.4234 92 38.0147V86C92 89.3137 89.3137 92 86 92H18C14.6863 92 12 89.3137 12 86V18Z" fill="url(#paint0_linear_4968_29048)"/>
<g clip-path="url(#clip0_4968_29048)">
<path d="M72.2304 56.5834C69.0534 53.1946 60.3962 54.6772 58.3048 54.889C55.3396 51.9239 53.2481 48.5616 52.4009 47.2908C53.4599 44.1139 54.3071 40.5398 54.3071 37.1511C54.3071 33.9741 53.0363 30.8237 49.6741 30.8237C49.0739 30.8175 48.4829 30.9712 47.9618 31.2689C47.4407 31.5667 47.0083 31.9978 46.7089 32.518C45.2263 35.0596 45.8617 40.1162 48.1915 45.3846C46.9207 49.197 44.8028 54.889 42.2877 59.3102C38.8989 60.581 31.5125 63.9433 30.8772 67.7556C30.6654 68.8146 31.089 70.0854 31.9361 70.7208C32.7833 71.5679 33.8423 71.7797 34.9013 71.7797C39.3225 71.7797 43.7702 65.6641 46.9472 60.1574C49.4887 59.3102 53.4864 58.0395 57.5105 57.4041C62.1436 61.64 66.3795 62.2489 68.4974 62.2489C71.4626 62.2489 72.5216 60.9781 72.9187 59.9192C73.4747 58.9131 73.0775 57.4306 72.2304 56.5834ZM69.2652 58.7013C69.0534 59.5485 67.9944 60.3957 66.0883 59.9721C63.8354 59.3902 61.7441 58.3038 59.9727 56.7952C61.4552 56.5834 65.0293 56.1598 67.5708 56.5834C68.418 56.7952 69.477 57.4306 69.2652 58.7013ZM48.7739 33.3652C48.8731 33.1707 49.025 33.008 49.2123 32.8956C49.3995 32.7833 49.6146 32.7258 49.8329 32.7298C50.8919 32.7298 51.1037 34.0006 51.1037 35.0596C50.8919 37.6011 50.4683 40.328 49.6211 42.6578C47.9267 38.0194 48.1385 34.636 48.7739 33.3652V33.3652ZM48.5621 57.2188C49.6211 55.3126 50.8919 51.7385 51.3155 50.4678C52.3745 52.3739 54.2806 54.4919 55.1278 55.5244C55.3396 55.3391 51.5273 56.1598 48.5621 57.2188V57.2188ZM41.3875 62.0901C38.4489 66.7231 35.6955 69.6882 34.0012 69.6882C33.7894 69.6882 33.3658 69.6883 33.154 69.4765C32.9422 69.0529 32.7304 68.6293 32.9422 68.2057C33.154 66.5113 36.5427 64.1816 41.3875 62.0901V62.0901Z" fill="white"/>
</g>
<g filter="url(#filter0_d_4968_29048)">
<path d="M91.512 32.6892L71.3102 12.4873C70.9981 12.1753 70.575 12 70.1337 12C69.2148 12 68.4699 12.7449 68.4699 13.6638V29.5294C68.4699 32.8431 71.1562 35.5294 74.4699 35.5294H90.3355C91.2544 35.5294 91.9993 34.7845 91.9993 33.8656C91.9993 33.4244 91.824 33.0012 91.512 32.6892Z" fill="url(#paint1_linear_4968_29048)" shape-rendering="crispEdges"/>
</g>
<defs>
<filter id="filter0_d_4968_29048" x="58.4699" y="10" width="35.5294" height="35.5293" filterUnits="userSpaceOnUse" color-interpolation-filters="sRGB">
<feFlood flood-opacity="0" result="BackgroundImageFix"/>
<feColorMatrix in="SourceAlpha" type="matrix" values="0 0 0 0 0 0 0 0 0 0 0 0 0 0 0 0 0 0 127 0" result="hardAlpha"/>
<feOffset dx="-4" dy="4"/>
<feGaussianBlur stdDeviation="3"/>
<feComposite in2="hardAlpha" operator="out"/>
<feColorMatrix type="matrix" values="0 0 0 0 0 0 0 0 0 0 0 0 0 0 0 0 0 0 0.12 0"/>
<feBlend mode="normal" in2="BackgroundImageFix" result="effect1_dropShadow_4968_29048"/>
<feBlend mode="normal" in="SourceGraphic" in2="effect1_dropShadow_4968_29048" result="shape"/>
</filter>
<linearGradient id="paint0_linear_4968_29048" x1="14.3529" y1="14.3529" x2="105.182" y2="54.4972" gradientUnits="userSpaceOnUse">
<stop stop-color="#E65950"/>
<stop offset="1" stop-color="#B31C12"/>
</linearGradient>
<linearGradient id="paint1_linear_4968_29048" x1="70.9526" y1="33.1765" x2="74.322" y2="21.951" gradientUnits="userSpaceOnUse">
<stop stop-color="white"/>
<stop offset="1" stop-color="white" stop-opacity="0.6"/>
</linearGradient>
<clipPath id="clip0_4968_29048">
<rect width="42.3529" height="42.3539" fill="white" transform="translate(30.8232 30.8235)"/>
</clipPath>
</defs>
</svg>
