<svg width="40" height="40" viewBox="0 0 40 40" fill="none" xmlns="http://www.w3.org/2000/svg">
<path d="M4 8C4 6.34315 5.34315 5 7 5H19.3846H24.4768C25.2725 5 26.0355 5.31607 26.5981 5.87868L33.8905 13.1711C34.4532 13.7337 34.7692 14.4968 34.7692 15.2924V32.7692C34.7692 34.4261 33.4261 35.7692 31.7692 35.7692H7C5.34315 35.7692 4 34.4261 4 32.7692V8Z" fill="url(#paint0_linear_4974_29214)"/>
<g filter="url(#filter0_d_4974_29214)">
<path d="M34.8623 12.9574L27.0924 5.18743C26.9724 5.06742 26.8096 5 26.6399 5C26.2865 5 26 5.2865 26 5.63992V11.0498C26 12.7066 27.3431 14.0498 29 14.0498H34.4099C34.7633 14.0498 35.0498 13.7633 35.0498 13.4099C35.0498 13.2401 34.9824 13.0774 34.8623 12.9574Z" fill="url(#paint1_linear_4974_29214)" shape-rendering="crispEdges"/>
</g>
<g clip-path="url(#clip0_4974_29214)">
<path d="M26.6423 21.7313C25.4422 20.4511 22.1718 21.0112 21.3817 21.0912C20.2615 19.9711 19.4714 18.7009 19.1514 18.2208C19.5515 17.0207 19.8715 15.6705 19.8715 14.3904C19.8715 13.1902 19.3914 12.0001 18.1213 12.0001C17.8946 11.9977 17.6713 12.0558 17.4744 12.1683C17.2776 12.2808 17.1142 12.4436 17.0011 12.6401C16.4411 13.6003 16.6811 15.5105 17.5612 17.5008C17.0811 18.9409 16.2811 21.0912 15.3309 22.7614C14.0508 23.2415 11.2604 24.5116 11.0204 25.9518C10.9404 26.3519 11.1004 26.8319 11.4204 27.072C11.7405 27.392 12.1405 27.472 12.5406 27.472C14.2108 27.472 15.891 25.1617 17.0912 23.0815C18.0513 22.7614 19.5615 22.2814 21.0816 22.0413C22.8319 23.6415 24.4321 23.8716 25.2322 23.8716C26.3523 23.8716 26.7524 23.3915 26.9024 22.9914C27.1124 22.6114 26.9624 22.0513 26.6423 21.7313ZM25.5222 22.5314C25.4422 22.8514 25.0421 23.1715 24.3221 23.0114C23.471 22.7916 22.681 22.3812 22.0118 21.8113C22.5718 21.7313 23.922 21.5713 24.8821 21.7313C25.2022 21.8113 25.6022 22.0513 25.5222 22.5314ZM17.7812 12.9602C17.8187 12.8867 17.8761 12.8252 17.9468 12.7828C18.0176 12.7404 18.0988 12.7186 18.1813 12.7202C18.5813 12.7202 18.6613 13.2002 18.6613 13.6003C18.5813 14.5604 18.4213 15.5905 18.1013 16.4706C17.4612 14.7184 17.5412 13.4402 17.7812 12.9602V12.9602ZM17.7012 21.9713C18.1013 21.2512 18.5813 19.9011 18.7414 19.421C19.1414 20.1411 19.8615 20.9412 20.1815 21.3312C20.2615 21.2612 18.8214 21.5713 17.7012 21.9713V21.9713ZM14.9909 23.8115C13.8807 25.5618 12.8406 26.6819 12.2005 26.6819C12.1205 26.6819 11.9605 26.6819 11.8805 26.6019C11.8005 26.4419 11.7205 26.2819 11.8005 26.1218C11.8805 25.4818 13.1607 24.6016 14.9909 23.8115V23.8115Z" fill="white"/>
</g>
<defs>
<filter id="filter0_d_4974_29214" x="16" y="3" width="21.0498" height="21.0498" filterUnits="userSpaceOnUse" color-interpolation-filters="sRGB">
<feFlood flood-opacity="0" result="BackgroundImageFix"/>
<feColorMatrix in="SourceAlpha" type="matrix" values="0 0 0 0 0 0 0 0 0 0 0 0 0 0 0 0 0 0 127 0" result="hardAlpha"/>
<feOffset dx="-4" dy="4"/>
<feGaussianBlur stdDeviation="3"/>
<feComposite in2="hardAlpha" operator="out"/>
<feColorMatrix type="matrix" values="0 0 0 0 0 0 0 0 0 0 0 0 0 0 0 0 0 0 0.12 0"/>
<feBlend mode="normal" in2="BackgroundImageFix" result="effect1_dropShadow_4974_29214"/>
<feBlend mode="normal" in="SourceGraphic" in2="effect1_dropShadow_4974_29214" result="shape"/>
</filter>
<linearGradient id="paint0_linear_4974_29214" x1="4.90498" y1="5.90498" x2="39.8394" y2="21.3451" gradientUnits="userSpaceOnUse">
<stop stop-color="#E65950"/>
<stop offset="1" stop-color="#B31C12"/>
</linearGradient>
<linearGradient id="paint1_linear_4974_29214" x1="26.9549" y1="13.1448" x2="28.2508" y2="8.82732" gradientUnits="userSpaceOnUse">
<stop stop-color="white"/>
<stop offset="1" stop-color="white" stop-opacity="0.6"/>
</linearGradient>
<clipPath id="clip0_4974_29214">
<rect x="11" y="12" width="15.9996" height="16" rx="3" fill="white"/>
</clipPath>
</defs>
</svg>
