<svg width="104" height="104" viewBox="0 0 104 104" fill="none" xmlns="http://www.w3.org/2000/svg">
<g clip-path="url(#clip0_4968_29037)">
<path d="M61.2503 55.6276L55.0829 10.3999H54.6224C32.196 10.4654 14.0321 28.6292 13.9666 51.0555V51.516L61.2503 55.6276Z" fill="#ED6C47"/>
<path d="M55.5433 10.3999H55.0828V51.5162L75.6409 59.7394L96.1991 51.5162V51.0557C96.1336 28.6293 77.9697 10.4654 55.5433 10.3999Z" fill="#FF8F6B"/>
<path d="M96.1992 51.5161V51.9684C96.1348 74.3998 77.9666 92.568 55.5352 92.6324H54.6306C32.1992 92.568 14.031 74.3998 13.9666 51.9684V51.5161H96.1992Z" fill="#D35230"/>
<path opacity="0.1" d="M57.1387 30.6086V74.4797C57.1285 76.0041 56.2047 77.3736 54.7951 77.954C54.3462 78.1438 53.8639 78.2417 53.3765 78.2418H23.67C23.0944 77.584 22.5393 76.885 22.0254 76.186C16.7878 69.199 13.9598 60.7007 13.9666 51.9685V51.0639C13.9546 43.1878 16.2564 35.4815 20.5863 28.9023C21.0386 28.2033 21.5114 27.5043 22.0254 26.8464H53.3765C55.4478 26.8621 57.123 28.5374 57.1387 30.6086Z" fill="black"/>
<path opacity="0.2" d="M55.0828 30.0642V73.9352C55.0827 74.4225 54.9848 74.9049 54.795 75.3537C54.2146 76.7633 52.8451 77.6871 51.3206 77.6973H25.5407C24.8903 77.037 24.2662 76.3512 23.6699 75.6415C23.0943 74.9837 22.5392 74.2847 22.0253 73.5857C16.7877 66.5988 13.9597 58.1004 13.9665 49.3682V48.4637C13.9545 40.5875 16.2563 32.8813 20.5862 26.302H51.3206C53.3919 26.3177 55.0671 27.9929 55.0828 30.0642Z" fill="black"/>
<path opacity="0.2" d="M55.0828 32.6642V72.4237C55.0672 74.4949 53.392 76.1701 51.3207 76.1858H22.0254C16.7878 69.1989 13.9598 60.7005 13.9666 51.9683V51.0638C13.9546 43.1876 16.2564 35.4814 20.5863 28.9021H51.3207C53.392 28.9177 55.0672 30.5929 55.0828 32.6642Z" fill="black"/>
<path d="M11.5683 28.9019H49.2597C51.3409 28.9019 53.028 30.589 53.028 32.6701V70.3615C53.028 72.4426 51.3409 74.1298 49.2597 74.1298H11.5683C9.48714 74.1298 7.79999 72.4426 7.79999 70.3615V32.6701C7.79999 30.589 9.48714 28.9019 11.5683 28.9019Z" fill="url(#paint0_linear_4968_29037)"/>
<path d="M30.8262 38.9532C33.2798 38.7876 35.7122 39.5003 37.6885 40.9638C39.3368 42.4354 40.2176 44.5827 40.0773 46.7879C40.1043 48.3209 39.6958 49.83 38.8994 51.1401C38.0931 52.4276 36.9314 53.4543 35.5546 54.0963C33.9805 54.8284 32.2596 55.1899 30.524 55.153H25.7566V64.0136H20.8741V38.9532H30.8262ZM25.7525 51.3251H29.9546C31.2867 51.423 32.6085 51.0287 33.6694 50.217C34.5469 49.3753 35.0068 48.1883 34.9255 46.975C34.9255 44.2134 33.3206 42.8325 30.1108 42.8325H25.7525V51.3251H25.7525Z" fill="white"/>
</g>
<defs>
<linearGradient id="paint0_linear_4968_29037" x1="15.657" y1="25.9574" x2="45.1709" y2="77.0744" gradientUnits="userSpaceOnUse">
<stop stop-color="#CA4C28"/>
<stop offset="0.5" stop-color="#C5401E"/>
<stop offset="1" stop-color="#B62F14"/>
</linearGradient>
<clipPath id="clip0_4968_29037">
<rect width="88.4" height="82.2326" fill="white" transform="translate(7.79999 10.3999)"/>
</clipPath>
</defs>
</svg>
