<svg width="40" height="40" viewBox="0 0 40 40" fill="none" xmlns="http://www.w3.org/2000/svg">
<g clip-path="url(#clip0_4974_29182)">
<path d="M23.5578 21.3953L21.1857 4H21.0086C12.3831 4.02518 5.39696 11.0113 5.37178 19.6368V19.8139L23.5578 21.3953Z" fill="#ED6C47"/>
<path d="M21.3628 4H21.1857V19.814L29.0927 22.9767L36.9997 19.814V19.6368C36.9745 11.0113 29.9884 4.02518 21.3628 4Z" fill="#FF8F6B"/>
<path d="M36.9997 19.814V19.9879C36.9749 28.6154 29.9871 35.6032 21.3597 35.6279H21.0118C12.3843 35.6032 5.39654 28.6154 5.37178 19.9879V19.814H36.9997Z" fill="#D35230"/>
<path opacity="0.1" d="M21.9764 11.7727V28.6462C21.9725 29.2325 21.6172 29.7592 21.075 29.9824C20.9024 30.0555 20.7169 30.0931 20.5294 30.0931H9.10385C8.88245 29.8401 8.66897 29.5713 8.47129 29.3024C6.45682 26.6151 5.36913 23.3465 5.37175 19.988V19.6401C5.36713 16.6108 6.25246 13.6469 7.9178 11.1164C8.09175 10.8475 8.27361 10.5787 8.47129 10.3257H20.5294C21.3261 10.3317 21.9704 10.976 21.9764 11.7727Z" fill="black"/>
<path opacity="0.2" d="M21.1857 11.5632V28.4367C21.1857 28.6241 21.148 28.8096 21.075 28.9823C20.8518 29.5244 20.325 29.8797 19.7387 29.8837H9.82336C9.57319 29.6297 9.33314 29.3659 9.10381 29.093C8.88242 28.8399 8.66894 28.5711 8.47126 28.3023C6.45679 25.615 5.3691 22.3463 5.37172 18.9878V18.6399C5.3671 15.6106 6.25243 12.6467 7.91777 10.1162H19.7387C20.5354 10.1222 21.1797 10.7665 21.1857 11.5632Z" fill="black"/>
<path opacity="0.2" d="M21.1857 12.5632V27.8553C21.1797 28.6519 20.5354 29.2962 19.7387 29.3023H8.47129C6.45682 26.615 5.36913 23.3464 5.37175 19.9878V19.6399C5.36713 16.6106 6.25246 13.6467 7.9178 11.1162H19.7387C20.5354 11.1222 21.1797 11.7665 21.1857 12.5632Z" fill="black"/>
<path d="M4.44935 11.1162H18.9461C19.7465 11.1162 20.3954 11.7651 20.3954 12.5656V27.0622C20.3954 27.8627 19.7465 28.5116 18.9461 28.5116H4.44935C3.64891 28.5116 3 27.8627 3 27.0622V12.5656C3 11.7651 3.64891 11.1162 4.44935 11.1162Z" fill="url(#paint0_linear_4974_29182)"/>
<path d="M11.8562 14.9819C12.7999 14.9183 13.7355 15.1924 14.4956 15.7553C15.1296 16.3212 15.4683 17.1471 15.4144 17.9953C15.4247 18.5849 15.2676 19.1653 14.9613 19.6692C14.6512 20.1644 14.2044 20.5593 13.6748 20.8062C13.0694 21.0878 12.4075 21.2268 11.74 21.2126H9.90639V24.6205H8.02849V14.9819H11.8562ZM9.90481 19.7404H11.521C12.0334 19.778 12.5417 19.6264 12.9498 19.3142C13.2873 18.9904 13.4642 18.5339 13.4329 18.0673C13.4329 17.0051 12.8156 16.474 11.5811 16.474H9.90483V19.7404H9.90481Z" fill="white"/>
</g>
<defs>
<linearGradient id="paint0_linear_4974_29182" x1="6.02194" y1="9.98372" x2="17.3734" y2="29.6441" gradientUnits="userSpaceOnUse">
<stop stop-color="#CA4C28"/>
<stop offset="0.5" stop-color="#C5401E"/>
<stop offset="1" stop-color="#B62F14"/>
</linearGradient>
<clipPath id="clip0_4974_29182">
<rect width="34" height="31.6279" fill="white" transform="translate(3 4)"/>
</clipPath>
</defs>
</svg>
