<svg width="32" height="32" viewBox="0 0 32 32" fill="none" xmlns="http://www.w3.org/2000/svg">
<path fill-rule="evenodd" clip-rule="evenodd" d="M15.9999 30.6667C24.1001 30.6667 30.6666 24.1002 30.6666 16C30.6666 7.89982 24.1001 1.33333 15.9999 1.33333C7.89976 1.33333 1.33327 7.89982 1.33327 16C1.33327 24.1002 7.89976 30.6667 15.9999 30.6667ZM20.4625 15.6102C19.5455 17.9577 17.8765 19.5293 16.001 19.5293C14.1257 19.5293 12.4569 17.9581 11.5398 15.6111C10.9691 15.3787 10.4257 14.6703 10.1778 13.7451C9.85565 12.5428 9.91988 11.4693 10.7993 11.1364C10.8846 6.9525 12.5358 5.33333 16.001 5.33333C19.4664 5.33333 21.1176 6.95272 21.2027 11.1373C22.0801 11.4711 22.1439 12.5438 21.822 13.7452C21.5745 14.669 21.0323 15.3767 20.4625 15.6102ZM24.125 23.1857C24.8072 23.5712 24.8671 24.4907 24.2661 24.9935C22.169 26.748 19.389 28 15.9999 28C12.6109 28 9.83089 26.748 7.73374 24.9935C7.13276 24.4907 7.19268 23.5712 7.87489 23.1857C10.1642 21.8923 13.2335 21.3333 15.9999 21.3333C18.7664 21.3333 21.8357 21.8923 24.125 23.1857Z" fill="#C9CDD4"/>
</svg>
