<svg width="40" height="40" viewBox="0 0 40 40" fill="none" xmlns="http://www.w3.org/2000/svg">
<g clip-path="url(#clip0_4974_29169)">
<path d="M35.5506 4H12.3563C11.5559 4 10.907 4.6489 10.907 5.44935V11.907L24.3488 15.8605L37 11.907V5.44935C37 4.6489 36.3511 4 35.5506 4Z" fill="#41A5EE"/>
<path d="M37 11.907H10.907V19.814L24.3488 22.1861L37 19.814V11.907Z" fill="#2B7CD3"/>
<path d="M10.907 19.814V27.7209L23.5581 29.3023L37 27.7209V19.814H10.907Z" fill="#185ABD"/>
<path d="M12.3563 35.6279H35.5508C36.3513 35.6279 37.0002 34.979 37.0002 34.1786V27.7209H10.907V34.1786C10.907 34.979 11.5559 35.6279 12.3563 35.6279Z" fill="#103F91"/>
<path opacity="0.1" d="M20.5274 10.3257H10.907V30.0931H20.5274C21.3268 30.0905 21.9741 29.4431 21.9767 28.6438V11.775C21.9741 10.9757 21.3268 10.3283 20.5274 10.3257Z" fill="#808CB4"/>
<path opacity="0.2" d="M19.7366 11.1162H10.907V30.8837H19.7366C20.536 30.8811 21.1834 30.2337 21.186 29.4343V12.5656C21.1834 11.7662 20.536 11.1188 19.7366 11.1162Z" fill="#808CB4"/>
<path opacity="0.2" d="M19.7366 11.1162H10.907V29.3023H19.7366C20.536 29.2997 21.1834 28.6523 21.186 27.8529V12.5656C21.1834 11.7662 20.536 11.1188 19.7366 11.1162Z" fill="#808CB4"/>
<path opacity="0.2" d="M18.946 11.1162H10.907V29.3023H18.946C19.7454 29.2997 20.3927 28.6523 20.3953 27.8529V12.5656C20.3927 11.7662 19.7454 11.1188 18.946 11.1162Z" fill="#808CB4"/>
<path d="M4.44935 11.1162H18.946C19.7465 11.1162 20.3954 11.7651 20.3954 12.5656V27.0622C20.3954 27.8627 19.7465 28.5116 18.946 28.5116H4.44935C3.6489 28.5116 3 27.8627 3 27.0622V12.5656C3 11.7651 3.6489 11.1162 4.44935 11.1162Z" fill="url(#paint0_linear_4974_29169)"/>
<path d="M8.94772 22.232C8.97619 22.4558 8.99516 22.6503 9.00386 22.8171H9.03706C9.04971 22.659 9.07606 22.4684 9.11613 22.2455C9.15619 22.0225 9.1923 21.834 9.22446 21.6801L10.7489 15.103H12.7201L14.3015 21.5813C14.3934 21.9841 14.4592 22.3924 14.4984 22.8037H14.5245C14.554 22.4052 14.6089 22.0091 14.689 21.6176L15.9501 15.0999H17.7442L15.5287 24.5251H13.4326L11.9302 18.2832C11.8867 18.1037 11.8369 17.8689 11.7824 17.5803C11.7278 17.2917 11.6938 17.0806 11.6804 16.9477H11.6543C11.6369 17.1011 11.6029 17.3288 11.5523 17.6309C11.5017 17.9329 11.4611 18.1564 11.4305 18.3014L10.0183 24.5235H7.88658L5.65919 15.103H7.4857L8.85915 21.6935C8.89 21.8287 8.91926 22.009 8.94772 22.232Z" fill="white"/>
</g>
<defs>
<linearGradient id="paint0_linear_4974_29169" x1="6.02192" y1="9.98372" x2="17.3734" y2="29.6441" gradientUnits="userSpaceOnUse">
<stop stop-color="#2368C4"/>
<stop offset="0.5" stop-color="#1A5DBE"/>
<stop offset="1" stop-color="#1146AC"/>
</linearGradient>
<clipPath id="clip0_4974_29169">
<rect width="34" height="31.6279" fill="white" transform="translate(3 4)"/>
</clipPath>
</defs>
</svg>
