<svg width="104" height="104" viewBox="0 0 104 104" fill="none" xmlns="http://www.w3.org/2000/svg">
<g clip-path="url(#clip0_4968_29002)">
<path d="M92.4317 10.3999H32.1265C30.0453 10.3999 28.3581 12.087 28.3581 14.1682V30.958L63.307 41.2371L96.2 30.958V14.1682C96.2 12.087 94.5129 10.3999 92.4317 10.3999Z" fill="#41A5EE"/>
<path d="M96.2 30.958H28.3581V51.5161L63.307 57.6836L96.2 51.5161V30.958Z" fill="#2B7CD3"/>
<path d="M28.3581 51.5161V72.0743L61.2512 76.1859L96.2 72.0743V51.5161H28.3581Z" fill="#185ABD"/>
<path d="M32.1265 92.6324H92.4321C94.5133 92.6324 96.2005 90.9452 96.2005 88.864V72.0742H28.3581V88.864C28.3581 90.9452 30.0453 92.6324 32.1265 92.6324Z" fill="#103F91"/>
<path opacity="0.1" d="M53.3712 26.8464H28.3581V78.2418H53.3712C55.4496 78.235 57.1328 76.5518 57.1395 74.4734V30.6148C57.1328 28.5364 55.4496 26.8532 53.3712 26.8464Z" fill="#808CB4"/>
<path opacity="0.2" d="M51.3152 28.9021H28.3581V80.2975H51.3152C53.3936 80.2907 55.0767 78.6075 55.0835 76.5291V32.6704C55.0767 30.592 53.3936 28.9089 51.3152 28.9021Z" fill="#808CB4"/>
<path opacity="0.2" d="M51.3152 28.9021H28.3581V76.1858H51.3152C53.3936 76.1791 55.0767 74.4959 55.0835 72.4175V32.6704C55.0767 30.592 53.3936 28.9089 51.3152 28.9021Z" fill="#808CB4"/>
<path opacity="0.2" d="M49.2596 28.9021H28.3581V76.1858H49.2596C51.338 76.1791 53.0211 74.4959 53.0279 72.4175V32.6704C53.0211 30.592 51.338 28.9089 49.2596 28.9021Z" fill="#808CB4"/>
<path d="M11.5683 28.9021H49.2596C51.3408 28.9021 53.0279 30.5892 53.0279 32.6704V70.3618C53.0279 72.443 51.3408 74.1301 49.2596 74.1301H11.5683C9.48713 74.1301 7.8 72.443 7.8 70.3618V32.6704C7.8 30.5892 9.48713 28.9021 11.5683 28.9021Z" fill="url(#paint0_linear_4968_29002)"/>
<path d="M23.2641 57.8029C23.3381 58.3847 23.3874 58.8904 23.41 59.3242H23.4963C23.5292 58.913 23.5977 58.4176 23.7019 57.8378C23.8061 57.2581 23.9 56.7681 23.9836 56.3679L27.9472 39.2675H33.0723L37.184 56.1109C37.4229 57.1583 37.5939 58.2199 37.6959 59.2892H37.7637C37.8404 58.2532 37.9832 57.2233 38.1913 56.2055L41.4704 39.2593H46.135L40.3746 63.7648H34.9246L31.0186 47.536C30.9055 47.0694 30.776 46.4588 30.6342 45.7084C30.4923 44.958 30.4039 44.4091 30.369 44.0637H30.3011C30.2559 44.4625 30.1675 45.0547 30.0359 45.84C29.9043 46.6253 29.7988 47.2064 29.7193 47.5833L26.0476 63.7607H20.5051L14.7139 39.2675H19.4628L23.0338 56.4028C23.114 56.7544 23.1901 57.2231 23.2641 57.8029Z" fill="white"/>
</g>
<defs>
<linearGradient id="paint0_linear_4968_29002" x1="15.657" y1="25.9576" x2="45.1709" y2="77.0745" gradientUnits="userSpaceOnUse">
<stop stop-color="#2368C4"/>
<stop offset="0.5" stop-color="#1A5DBE"/>
<stop offset="1" stop-color="#1146AC"/>
</linearGradient>
<clipPath id="clip0_4968_29002">
<rect width="88.4" height="82.2326" fill="white" transform="translate(7.8 10.3999)"/>
</clipPath>
</defs>
</svg>
