<svg width="40" height="40" viewBox="0 0 40 40" fill="none" xmlns="http://www.w3.org/2000/svg">
<path d="M4.61539 7.61548C4.61539 5.95862 5.95853 4.61548 7.61539 4.61548H20H25.0922C25.8879 4.61548 26.6509 4.93155 27.2135 5.49416L34.5059 12.7866C35.0685 13.3492 35.3846 14.1122 35.3846 14.9079V32.3847C35.3846 34.0416 34.0415 35.3847 32.3846 35.3847H7.61539C5.95853 35.3847 4.61539 34.0416 4.61539 32.3847V7.61548Z" fill="url(#paint0_linear_4974_29193)"/>
<g filter="url(#filter0_d_4974_29193)">
<path d="M35.1972 12.5728L27.4272 4.80291C27.3072 4.6829 27.1444 4.61548 26.9747 4.61548C26.6213 4.61548 26.3348 4.90198 26.3348 5.25539V10.6653C26.3348 12.3221 27.678 13.6653 29.3348 13.6653H34.7447C35.0981 13.6653 35.3846 13.3788 35.3846 13.0253C35.3846 12.8556 35.3172 12.6929 35.1972 12.5728Z" fill="url(#paint1_linear_4974_29193)" shape-rendering="crispEdges"/>
</g>
<path fill-rule="evenodd" clip-rule="evenodd" d="M22.715 13.2127C22.715 12.463 22.1072 11.8552 21.3575 11.8552V11.8552C20.6078 11.8552 20 12.463 20 13.2127V13.2127C20 13.9624 20.6078 14.5702 21.3575 14.5702V14.5702C22.1072 14.5702 22.715 13.9624 22.715 13.2127V13.2127ZM17.285 15.9276C17.285 15.1779 17.8928 14.5702 18.6425 14.5702V14.5702C19.3922 14.5702 20 15.1779 20 15.9276V15.9276C20 16.6773 19.3922 17.2851 18.6425 17.2851V17.2851C17.8928 17.2851 17.285 16.6773 17.285 15.9276V15.9276ZM22.715 18.6426C22.715 17.8929 22.1072 17.2851 21.3575 17.2851V17.2851C20.6078 17.2851 20 17.8929 20 18.6426V18.6426C20 19.3923 20.6078 20 21.3575 20V20C22.1072 20 22.715 19.3923 22.715 18.6426V18.6426ZM17.285 21.3575C17.285 20.6078 17.8928 20 18.6425 20V20C19.3922 20 20 20.6078 20 21.3575V21.3575C20 22.1072 19.3922 22.715 18.6425 22.715V22.715C17.8928 22.715 17.285 22.1072 17.285 21.3575V21.3575ZM22.715 24.0724C22.715 23.3227 22.1072 22.715 21.3575 22.715V22.715C20.6078 22.715 20 23.3227 20 24.0724V24.0724C20 24.8221 20.6078 25.4299 21.3575 25.4299V25.4299C22.1072 25.4299 22.715 24.8221 22.715 24.0724V24.0724ZM17.285 26.7874C17.285 26.0377 17.8928 25.4299 18.6425 25.4299V25.4299C19.3922 25.4299 20 26.0377 20 26.7874V26.7874C20 27.5371 19.3922 28.1448 18.6425 28.1448V28.1448C17.8928 28.1448 17.285 27.5371 17.285 26.7874V26.7874ZM17.285 32.6697C17.285 31.1703 18.5006 29.9548 20 29.9548V29.9548C21.4994 29.9548 22.7149 31.1703 22.7149 32.6697V32.6697C22.7149 34.1691 21.4994 35.3846 20 35.3846V35.3846C18.5006 35.3846 17.285 34.1691 17.285 32.6697V32.6697Z" fill="url(#paint2_linear_4974_29193)"/>
<defs>
<filter id="filter0_d_4974_29193" x="18.3348" y="4.61548" width="17.0498" height="17.0498" filterUnits="userSpaceOnUse" color-interpolation-filters="sRGB">
<feFlood flood-opacity="0" result="BackgroundImageFix"/>
<feColorMatrix in="SourceAlpha" type="matrix" values="0 0 0 0 0 0 0 0 0 0 0 0 0 0 0 0 0 0 127 0" result="hardAlpha"/>
<feOffset dx="-4" dy="4"/>
<feGaussianBlur stdDeviation="2"/>
<feComposite in2="hardAlpha" operator="out"/>
<feColorMatrix type="matrix" values="0 0 0 0 0 0 0 0 0 0 0 0 0 0 0 0 0 0 0.12 0"/>
<feBlend mode="normal" in2="BackgroundImageFix" result="effect1_dropShadow_4974_29193"/>
<feBlend mode="normal" in="SourceGraphic" in2="effect1_dropShadow_4974_29193" result="shape"/>
</filter>
<linearGradient id="paint0_linear_4974_29193" x1="5.03639" y1="6.87792" x2="38.9192" y2="20.0356" gradientUnits="userSpaceOnUse">
<stop stop-color="#B3C4D5"/>
<stop offset="1" stop-color="#6C89A6"/>
</linearGradient>
<linearGradient id="paint1_linear_4974_29193" x1="27.2897" y1="12.7603" x2="28.5856" y2="8.4428" gradientUnits="userSpaceOnUse">
<stop stop-color="white"/>
<stop offset="1" stop-color="white" stop-opacity="0.6"/>
</linearGradient>
<linearGradient id="paint2_linear_4974_29193" x1="20" y1="11.8552" x2="20" y2="35.3846" gradientUnits="userSpaceOnUse">
<stop offset="0.666667" stop-color="#ECF2FE"/>
<stop offset="1" stop-color="#ECF2FE" stop-opacity="0"/>
</linearGradient>
</defs>
</svg>
