<svg width="104" height="104" viewBox="0 0 104 104" fill="none" xmlns="http://www.w3.org/2000/svg">
<path d="M12 18C12 14.6863 14.6863 12 18 12H52H65.9853C67.5766 12 69.1027 12.6321 70.2279 13.7574L90.2426 33.7721C91.3679 34.8973 92 36.4234 92 38.0147V86C92 89.3137 89.3137 92 86 92H18C14.6863 92 12 89.3137 12 86V18Z" fill="url(#paint0_linear_4968_29063)"/>
<g filter="url(#filter0_d_4968_29063)">
<path d="M91.5126 32.6892L71.3108 12.4873C70.9988 12.1753 70.5756 12 70.1343 12C69.2154 12 68.4705 12.7449 68.4705 13.6638V29.5294C68.4705 32.8431 71.1568 35.5294 74.4705 35.5294H90.3361C91.255 35.5294 91.9999 34.7845 91.9999 33.8656C91.9999 33.4244 91.8246 33.0012 91.5126 32.6892Z" fill="url(#paint1_linear_4968_29063)" shape-rendering="crispEdges"/>
</g>
<path fill-rule="evenodd" clip-rule="evenodd" d="M59.0588 30.8235H52V37.8823H59.0588V30.8235ZM44.9411 37.8821H51.9999V44.941H44.9411V37.8821ZM59.0588 44.941H52V51.9998H59.0588V44.941ZM44.9411 51.9999H51.9999V59.0587H44.9411V51.9999ZM59.0588 59.0587H52V66.1176H59.0588V59.0587ZM44.9411 66.1176H51.9999V73.1764H44.9411V66.1176ZM59.0587 77.8823V92H44.9411V77.8823H59.0587Z" fill="url(#paint2_linear_4968_29063)"/>
<defs>
<filter id="filter0_d_4968_29063" x="60.4705" y="12" width="31.5294" height="31.5293" filterUnits="userSpaceOnUse" color-interpolation-filters="sRGB">
<feFlood flood-opacity="0" result="BackgroundImageFix"/>
<feColorMatrix in="SourceAlpha" type="matrix" values="0 0 0 0 0 0 0 0 0 0 0 0 0 0 0 0 0 0 127 0" result="hardAlpha"/>
<feOffset dx="-4" dy="4"/>
<feGaussianBlur stdDeviation="2"/>
<feComposite in2="hardAlpha" operator="out"/>
<feColorMatrix type="matrix" values="0 0 0 0 0 0 0 0 0 0 0 0 0 0 0 0 0 0 0.12 0"/>
<feBlend mode="normal" in2="BackgroundImageFix" result="effect1_dropShadow_4968_29063"/>
<feBlend mode="normal" in="SourceGraphic" in2="effect1_dropShadow_4968_29063" result="shape"/>
</filter>
<linearGradient id="paint0_linear_4968_29063" x1="13.0946" y1="17.8824" x2="101.19" y2="52.0924" gradientUnits="userSpaceOnUse">
<stop stop-color="#B3C4D5"/>
<stop offset="1" stop-color="#6C89A6"/>
</linearGradient>
<linearGradient id="paint1_linear_4968_29063" x1="70.9532" y1="33.1765" x2="74.3226" y2="21.951" gradientUnits="userSpaceOnUse">
<stop stop-color="white"/>
<stop offset="1" stop-color="white" stop-opacity="0.6"/>
</linearGradient>
<linearGradient id="paint2_linear_4968_29063" x1="51.9999" y1="30.8235" x2="51.9999" y2="92" gradientUnits="userSpaceOnUse">
<stop offset="0.666667" stop-color="#ECF2FE"/>
<stop offset="1" stop-color="#ECF2FE" stop-opacity="0"/>
</linearGradient>
</defs>
</svg>
