<svg width="20" height="20" viewBox="0 0 20 20" fill="none" xmlns="http://www.w3.org/2000/svg">
<path d="M2.08334 17.0834V8.75008C2.08334 8.28983 2.45644 7.91675 2.91668 7.91675H7.91668H11.25C11.7103 7.91675 12.0833 8.28983 12.0833 8.75008V12.0834V17.0834C12.0833 17.5437 11.7103 17.9167 11.25 17.9167H2.91668C2.45644 17.9167 2.08334 17.5437 2.08334 17.0834Z" stroke="#4E5969" stroke-width="2" stroke-linecap="round" stroke-linejoin="round"/>
<path d="M17.9167 2.91659V11.2499C17.9167 11.7102 17.5436 12.0833 17.0833 12.0833H12.9167C12.4564 12.0833 12.0833 11.7102 12.0833 11.2499V8.74992C12.0833 8.28967 11.7102 7.91659 11.25 7.91659H8.74999C8.28974 7.91659 7.91666 7.5435 7.91666 7.08325V2.91659C7.91666 2.45635 8.28974 2.08325 8.74999 2.08325H17.0833C17.5436 2.08325 17.9167 2.45635 17.9167 2.91659Z" stroke="#4E5969" stroke-width="2" stroke-linecap="round" stroke-linejoin="round"/>
</svg>
