<svg width="40" height="40" viewBox="0 0 40 40" fill="none" xmlns="http://www.w3.org/2000/svg">
<path d="M3.07717 8.76929C3.07717 7.11243 4.42031 5.76929 6.07717 5.76929H14.9188C15.5111 5.76929 16.0901 5.9446 16.5829 6.27314L19.3214 8.09877C19.8142 8.42731 20.3932 8.60262 20.9855 8.60262H34.0772C35.734 8.60262 37.0772 9.94577 37.0772 11.6026V31.1026C37.0772 32.7595 35.734 34.1026 34.0772 34.1026H6.07717C4.42031 34.1026 3.07717 32.7595 3.07717 31.1026V8.76929Z" fill="#F9B919"/>
<path d="M14.5843 14.269C15.38 14.269 16.143 13.953 16.7056 13.3904L19.1983 10.8977C19.7609 10.3351 20.5239 10.019 21.3196 10.019H34.0769C35.7338 10.019 37.0769 11.3622 37.0769 13.019V29.6857C37.0769 31.3426 35.7338 32.6857 34.0769 32.6857H6.07694C4.42009 32.6857 3.07694 31.3426 3.07694 29.6857V17.269C3.07694 15.6122 4.42009 14.269 6.07694 14.269H14.5843Z" fill="#FFEDB9"/>
<path d="M15.2926 15.6855C16.0883 15.6855 16.8513 15.3695 17.414 14.8069L19.9066 12.3142C20.4692 11.7516 21.2323 11.4355 22.0279 11.4355H34.0769C35.7338 11.4355 37.0769 12.7787 37.0769 14.4355V29.6855C37.0769 31.3424 35.7338 32.6855 34.0769 32.6855H6.07694C4.42009 32.6855 3.07694 31.3424 3.07694 29.6855V18.6855C3.07694 17.0287 4.42009 15.6855 6.07694 15.6855H15.2926Z" fill="url(#paint0_linear_4974_29149)"/>
<defs>
<linearGradient id="paint0_linear_4974_29149" x1="20.0769" y1="10.0189" x2="37.0769" y2="32.6855" gradientUnits="userSpaceOnUse">
<stop stop-color="#FFE79F"/>
<stop offset="1" stop-color="#FFC937"/>
</linearGradient>
</defs>
</svg>
