<svg width="104" height="104" viewBox="0 0 104 104" fill="none" xmlns="http://www.w3.org/2000/svg">
<path d="M8.00024 21C8.00024 17.6863 10.6865 15 14.0002 15H39.3336C40.5181 15 41.6762 15.3506 42.6618 16.0077L50.6887 21.359C51.6743 22.016 52.8323 22.3667 54.0169 22.3667H90.4002C93.7139 22.3667 96.4002 25.053 96.4002 28.3667V82.6667C96.4002 85.9804 93.714 88.6667 90.4002 88.6667H14.0002C10.6865 88.6667 8.00024 85.9804 8.00024 82.6667V21Z" fill="#F9B919"/>
<path d="M38.6647 37.0998C40.256 37.0998 41.7821 36.4677 42.9074 35.3424L50.4426 27.8072C51.5679 26.6819 53.094 26.0498 54.6853 26.0498H90.4C93.7137 26.0498 96.4 28.7361 96.4 32.0498V78.9831C96.4 82.2968 93.7137 84.9831 90.4 84.9831H14C10.6863 84.9831 8 82.2968 8 78.9831V43.0998C8 39.7861 10.6863 37.0998 14 37.0998H38.6647Z" fill="#FFEDB9"/>
<path d="M40.5064 40.7827C42.0977 40.7827 43.6238 40.1505 44.749 39.0253L52.2843 31.49C53.4095 30.3648 54.9357 29.7327 56.527 29.7327H90.4C93.7137 29.7327 96.4 32.419 96.4 35.7327V78.9827C96.4 82.2964 93.7137 84.9827 90.4 84.9827H14C10.6863 84.9827 8 82.2964 8 78.9827V46.7827C8 43.469 10.6863 40.7827 14 40.7827H40.5064Z" fill="url(#paint0_linear_4967_28997)"/>
<defs>
<linearGradient id="paint0_linear_4967_28997" x1="52.2" y1="26.0493" x2="96.4" y2="84.9827" gradientUnits="userSpaceOnUse">
<stop stop-color="#FFE79F"/>
<stop offset="1" stop-color="#FFC937"/>
</linearGradient>
</defs>
</svg>
