<svg width="20" height="20" viewBox="0 0 20 20" fill="none" xmlns="http://www.w3.org/2000/svg">
<path d="M7.61825 17.9881C6.22196 17.5724 4.97908 16.8006 3.99495 15.778C4.36208 15.3428 4.58333 14.7806 4.58333 14.1667C4.58333 12.786 3.46405 11.6668 2.08333 11.6668C1.99981 11.6668 1.91725 11.6709 1.83583 11.6789C1.72491 11.1366 1.66667 10.5752 1.66667 10.0001C1.66667 9.129 1.80032 8.28913 2.04825 7.49983C2.05992 7.5 2.07162 7.50008 2.08333 7.50008C3.46405 7.50008 4.58333 6.38079 4.58333 5.00008C4.58333 4.60371 4.49108 4.22892 4.32692 3.89592C5.29063 2.99983 6.46688 2.32922 7.77171 1.96802C8.18517 2.77846 9.02779 3.33343 10 3.33343C10.9722 3.33343 11.8148 2.77846 12.2283 1.96802C13.5331 2.32922 14.7094 2.99983 15.6731 3.89592C15.5089 4.22892 15.4167 4.60371 15.4167 5.00008C15.4167 6.38079 16.536 7.50008 17.9167 7.50008C17.9284 7.50008 17.9401 7.5 17.9518 7.49983C18.1997 8.28913 18.3333 9.129 18.3333 10.0001C18.3333 10.5752 18.2751 11.1366 18.1642 11.6789C18.0828 11.6709 18.0002 11.6668 17.9167 11.6668C16.536 11.6668 15.4167 12.786 15.4167 14.1667C15.4167 14.7806 15.6379 15.3428 16.005 15.778C15.0209 16.8006 13.778 17.5724 12.3818 17.9881C12.0595 16.98 11.115 16.2501 10 16.2501C8.885 16.2501 7.9405 16.98 7.61825 17.9881Z" stroke="#4E5969" stroke-width="2" stroke-linejoin="round"/>
<path d="M10 12.9166C11.6108 12.9166 12.9167 11.6108 12.9167 9.99992C12.9167 8.38909 11.6108 7.08325 10 7.08325C8.38917 7.08325 7.08333 8.38909 7.08333 9.99992C7.08333 11.6108 8.38917 12.9166 10 12.9166Z" stroke="#4E5969" stroke-width="2" stroke-linejoin="round"/>
</svg>
