<svg width="104" height="104" viewBox="0 0 104 104" fill="none" xmlns="http://www.w3.org/2000/svg">
<rect x="11.5" y="21.5" width="81" height="61" rx="4.5" fill="url(#paint0_linear_4968_29059)" stroke="#592812" stroke-width="3"/>
<g filter="url(#filter0_d_4968_29059)">
<path d="M51.5848 38.0387C51.299 37.957 50.9884 38.0062 50.7479 38.1712C50.5073 38.3361 50.3654 38.5973 50.3654 38.875V56.2084C49.2649 55.2277 47.7707 54.625 46.125 54.625C42.7423 54.625 40 57.1714 40 60.3125C40 63.4536 42.7423 66 46.125 66C49.5077 66 52.25 63.4536 52.25 60.3125C52.25 60.2069 52.2469 60.102 52.2408 59.9979C52.2469 59.9577 52.25 59.9167 52.25 59.875V47.0597L63.2806 50.2113C63.5664 50.293 63.877 50.2438 64.1175 50.0788C64.3581 49.9139 64.5 49.6527 64.5 49.375V44.96C64.5 43.0394 63.151 41.3433 61.1741 40.7785L51.5848 38.0387Z" fill="url(#paint1_linear_4968_29059)"/>
</g>
<defs>
<filter id="filter0_d_4968_29059" x="36" y="38" width="32.5" height="36" filterUnits="userSpaceOnUse" color-interpolation-filters="sRGB">
<feFlood flood-opacity="0" result="BackgroundImageFix"/>
<feColorMatrix in="SourceAlpha" type="matrix" values="0 0 0 0 0 0 0 0 0 0 0 0 0 0 0 0 0 0 127 0" result="hardAlpha"/>
<feOffset dy="4"/>
<feGaussianBlur stdDeviation="2"/>
<feComposite in2="hardAlpha" operator="out"/>
<feColorMatrix type="matrix" values="0 0 0 0 0 0 0 0 0 0 0 0 0 0 0 0 0 0 0.12 0"/>
<feBlend mode="normal" in2="BackgroundImageFix" result="effect1_dropShadow_4968_29059"/>
<feBlend mode="normal" in="SourceGraphic" in2="effect1_dropShadow_4968_29059" result="shape"/>
</filter>
<linearGradient id="paint0_linear_4968_29059" x1="14.2" y1="24.8485" x2="63.2892" y2="106.371" gradientUnits="userSpaceOnUse">
<stop stop-color="#FF9166"/>
<stop offset="1" stop-color="#965CA7"/>
</linearGradient>
<linearGradient id="paint1_linear_4968_29059" x1="48.1667" y1="45" x2="66.9606" y2="63.5003" gradientUnits="userSpaceOnUse">
<stop offset="0.157588" stop-color="white"/>
<stop offset="0.644219" stop-color="#F3ECEC"/>
</linearGradient>
</defs>
</svg>
