<svg width="40" height="40" viewBox="0 0 40 40" fill="none" xmlns="http://www.w3.org/2000/svg">
<rect x="4.84616" y="8.69238" width="30.3077" height="22.6154" rx="2" fill="url(#paint0_linear_4974_29210)" stroke="#592812" stroke-width="2"/>
<g filter="url(#filter0_d_4974_29210)">
<path d="M19.8403 14.6304C19.7304 14.599 19.6109 14.6179 19.5184 14.6813C19.4259 14.7448 19.3713 14.8452 19.3713 14.952V21.6187C18.948 21.2415 18.3734 21.0097 17.7404 21.0097C16.4393 21.0097 15.3846 21.9891 15.3846 23.1972C15.3846 24.4053 16.4393 25.3847 17.7404 25.3847C19.0414 25.3847 20.0962 24.4053 20.0962 23.1972C20.0962 23.1566 20.095 23.1163 20.0926 23.0762C20.0949 23.0608 20.0962 23.045 20.0962 23.0289V18.1L24.3387 19.3121C24.4486 19.3435 24.5681 19.3246 24.6606 19.2612C24.7531 19.1977 24.8077 19.0973 24.8077 18.9905V17.2924C24.8077 16.5537 24.2888 15.9014 23.5285 15.6841L19.8403 14.6304Z" fill="url(#paint1_linear_4974_29210)"/>
</g>
<defs>
<filter id="filter0_d_4974_29210" x="11.3846" y="14.6155" width="17.4231" height="18.7693" filterUnits="userSpaceOnUse" color-interpolation-filters="sRGB">
<feFlood flood-opacity="0" result="BackgroundImageFix"/>
<feColorMatrix in="SourceAlpha" type="matrix" values="0 0 0 0 0 0 0 0 0 0 0 0 0 0 0 0 0 0 127 0" result="hardAlpha"/>
<feOffset dy="4"/>
<feGaussianBlur stdDeviation="2"/>
<feComposite in2="hardAlpha" operator="out"/>
<feColorMatrix type="matrix" values="0 0 0 0 0 0 0 0 0 0 0 0 0 0 0 0 0 0 0.12 0"/>
<feBlend mode="normal" in2="BackgroundImageFix" result="effect1_dropShadow_4974_29210"/>
<feBlend mode="normal" in="SourceGraphic" in2="effect1_dropShadow_4974_29210" result="shape"/>
</filter>
<linearGradient id="paint0_linear_4974_29210" x1="5.46155" y1="9.55719" x2="24.342" y2="40.9121" gradientUnits="userSpaceOnUse">
<stop stop-color="#FF9166"/>
<stop offset="1" stop-color="#965CA7"/>
</linearGradient>
<linearGradient id="paint1_linear_4974_29210" x1="18.5256" y1="17.3078" x2="25.7541" y2="24.4233" gradientUnits="userSpaceOnUse">
<stop offset="0.157588" stop-color="white"/>
<stop offset="0.644219" stop-color="#F3ECEC"/>
</linearGradient>
</defs>
</svg>
